# xmcd CD database file
#
# Track frame offsets:
#	151
#	21806
#	44171
#	63119
#	81732
#	99297
#	120666
#	141511
#	161176
#	182365
#	202952
#	222782
#	246563
#	271599
#	290873
#
# Disc length: 4247 seconds
#
# Revision: 0
# Processed by: cddbd v1.5PL3 Copyright (c) Steve Scherf et al.
# Submitted via: CDex 1.51
#
DISCID=e510950f
DTITLE=Smooth Jazz with a Twist of Marley - Smooth Jazz with a Twist of Marley
DYEAR=2004
DGENRE=Jazz
TTITLE0=Good Medicine - Chris Standring
TTITLE1=I'm not in love - Chris Standring
TTITLE2=Smile - Chris Standring
TTITLE3=Small Talk - Chris Standring
TTITLE4=The city life - Mark Jaimes
TTITLE5=European Comfort - Mark Jaimes
TTITLE6=Ocean Drive - Russel Freeman
TTITLE7=Life in the Tropics - Russell Freeman
TTITLE8=Aphrodisiac Island - Russell Freeman
TTITLE9=Waiting in Vain - Maxi Priest
TTITLE10=Get Up Stand Up - Jochem and Digz
TTITLE11=I Shot the Sherrif - Maxi Priest
TTITLE12=Is this Love - Will Downing
TTITLE13=Jamming G. Albright and L. Ritenour
TTITLE14=No Woman No Cry - Jonathan Butler
EXTD=YEAR: 2004
EXTT0=
EXTT1=
EXTT2=
EXTT3=
EXTT4=
EXTT5=
EXTT6=
EXTT7=
EXTT8=
EXTT9=
EXTT10=
EXTT11=
EXTT12=
EXTT13=
EXTT14=
PLAYORDER=
